<?xml version="1.0" standalone="no"?>
<!DOCTYPE svg PUBLIC "-//W3C//DTD SVG 20010904//EN"
 "http://www.w3.org/TR/2001/REC-SVG-20010904/DTD/svg10.dtd">
<svg version="1.0" xmlns="http://www.w3.org/2000/svg"
 width="626.000000pt" height="626.000000pt" viewBox="0 0 626.000000 626.000000"
 preserveAspectRatio="xMidYMid meet">

<g transform="translate(0.000000,626.000000) scale(0.100000,-0.100000)"
fill="#000000" stroke="none">
<path d="M4547 5058 c7 -62 15 -117 16 -122 2 -5 16 38 31 95 16 57 31 112 33
122 5 14 -2 17 -44 17 l-50 0 14 -112z"/>
<path d="M4803 4992 c-45 -53 -80 -98 -79 -99 6 -7 246 93 246 102 0 9 -77 96
-83 94 -1 0 -39 -44 -84 -97z"/>
<path d="M4215 4765 c-301 -31 -687 -69 -2190 -215 -396 -38 -738 -75 -760
-81 -95 -25 -188 -119 -214 -214 -17 -63 -14 -100 39 -496 27 -205 50 -380 50
-388 0 -9 -24 -29 -55 -45 -68 -35 -156 -128 -195 -206 -107 -213 -104 -513 9
-805 74 -193 213 -360 328 -395 86 -26 114 -43 134 -82 27 -53 85 -116 128
-137 25 -13 45 -36 66 -77 35 -65 102 -124 165 -143 52 -15 128 -14 496 9 175
11 580 36 899 55 319 20 599 34 622 30 25 -4 44 -2 48 5 10 17 116 13 129 -6
13 -18 46 -9 46 12 0 10 15 14 59 14 51 0 59 -3 64 -21 7 -27 39 -22 52 9 8
19 17 22 62 22 46 0 52 -2 55 -22 2 -17 10 -23 28 -23 20 0 25 5 25 26 -1 24
4 27 42 32 49 5 116 38 156 75 38 36 76 111 83 166 6 40 9 44 31 43 33 -3 52
25 34 47 -8 9 -22 16 -33 16 -14 0 -18 5 -14 16 3 9 6 30 6 47 0 24 6 35 22
42 29 13 35 45 13 61 -15 11 -17 22 -11 60 3 26 11 53 17 60 6 8 8 26 4 44 -7
34 -7 34 65 19 43 -9 50 -14 50 -35 0 -33 29 -43 50 -17 l16 21 70 -32 c87
-41 208 -138 254 -204 44 -64 60 -66 60 -9 -1 113 -59 279 -141 398 -63 91
-97 158 -91 182 2 12 -3 20 -15 23 -10 3 -34 28 -53 57 -19 28 -70 87 -112
130 -43 43 -78 87 -78 98 0 26 4 25 51 -21 47 -45 82 -55 173 -48 108 9 210
70 242 145 8 18 14 55 14 83 0 43 -5 55 -36 90 -19 21 -44 42 -55 45 -11 4
-26 20 -34 36 -9 16 -34 41 -56 56 -23 15 -37 28 -33 29 5 1 21 5 37 8 17 4
27 13 27 24 0 26 44 113 76 151 16 19 74 70 129 114 193 152 247 255 210 399
-19 76 -52 127 -108 165 -22 15 -61 47 -85 71 -23 24 -67 54 -96 67 -63 28
-201 50 -257 41 -39 -6 -41 -5 -97 55 -39 42 -61 75 -68 105 -26 96 -86 168
-174 207 -80 36 -121 38 -375 12z m914 -451 c106 -31 171 -113 179 -225 8
-106 -39 -171 -243 -339 -80 -66 -148 -155 -160 -210 -4 -17 -7 -30 -8 -30 -1
0 -45 -9 -97 -19 -52 -10 -98 -17 -102 -14 -15 8 -8 132 10 190 27 84 59 130
188 264 119 124 130 144 96 185 -39 48 -99 56 -171 24 -54 -25 -156 -97 -195
-139 -17 -17 -35 -31 -40 -30 -6 0 -41 36 -79 79 l-67 78 47 41 c161 137 449
203 642 145z m-793 -46 c-33 -163 -116 -756 -116 -829 0 -25 -5 -27 -82 -44
-46 -10 -88 -20 -94 -22 -11 -4 -22 268 -26 666 l-1 175 64 18 c97 28 243 67
253 67 5 1 6 -14 2 -31z m-643 -170 c3 -13 9 -62 12 -109 l7 -85 -52 -120
c-90 -206 -283 -695 -277 -701 2 -1 89 22 193 52 104 30 196 55 204 55 11 0
22 -27 39 -92 13 -51 26 -98 28 -103 2 -6 -39 -21 -94 -34 -117 -28 -421 -128
-548 -181 l-92 -38 -41 105 -40 105 49 141 c54 153 152 409 222 582 39 96 43
110 28 113 -22 4 -179 -49 -281 -94 -43 -19 -82 -34 -87 -34 -8 0 -77 210 -70
216 17 15 747 242 783 244 7 0 14 -10 17 -22z m-925 -308 c11 -58 41 -209 66
-336 46 -233 137 -737 133 -740 -16 -10 -222 -104 -228 -104 -5 0 -9 12 -9 28
0 82 -95 557 -191 952 -27 113 -46 206 -41 208 5 1 60 27 122 57 63 30 117 51
121 47 4 -4 16 -54 27 -112z m-416 -37 c3 -16 30 -125 61 -243 31 -118 77
-314 102 -435 40 -190 46 -232 43 -310 -3 -75 -9 -101 -35 -156 -74 -158 -251
-267 -399 -244 -37 5 -56 16 -93 53 -40 41 -52 64 -94 182 -67 185 -298 873
-295 875 6 6 227 122 241 128 11 4 19 -3 26 -26 20 -63 121 -436 176 -652 75
-291 87 -317 145 -330 63 -14 110 41 110 129 0 60 -97 449 -197 789 -25 87
-44 159 -41 162 7 8 223 103 234 104 7 1 14 -11 16 -26z m-948 -453 c77 -39
149 -125 211 -253 66 -137 93 -246 102 -399 3 -68 10 -118 16 -118 6 0 54 -16
108 -36 127 -48 131 -55 99 -197 -12 -56 -26 -108 -29 -114 -5 -9 -39 3 -120
42 -62 30 -116 55 -119 55 -4 0 -27 -39 -52 -86 -79 -152 -186 -237 -300 -237
-173 0 -344 217 -426 541 -24 92 -28 128 -28 252 -1 156 12 225 59 328 93 204
313 305 479 222z m3559 -4 c145 -61 100 -219 -76 -271 -66 -19 -111 -19 -154
2 -86 40 -99 169 -25 236 48 44 187 62 255 33z m-740 -101 c69 -29 103 -105
73 -163 -39 -76 -125 -117 -227 -110 -48 3 -65 10 -90 34 -85 80 -75 184 22
232 53 27 167 30 222 7z"/>
<path d="M1273 2998 c-47 -12 -117 -81 -144 -140 -21 -46 -24 -68 -24 -168 1
-136 25 -237 84 -345 59 -110 138 -142 226 -91 34 21 95 89 95 107 0 3 -27 18
-60 34 -33 16 -60 33 -60 39 0 6 17 50 37 99 40 92 41 93 97 71 21 -8 21 20 0
105 -35 145 -126 283 -191 293 -16 2 -43 0 -60 -4z"/>
<path d="M4922 4746 c-51 -24 -95 -45 -97 -48 -6 -5 152 -28 193 -28 19 0 22
6 22 38 0 42 -9 82 -19 81 -3 0 -48 -20 -99 -43z"/>
<path d="M4953 2798 c2 -7 10 -13 17 -13 7 0 15 6 18 13 2 7 -5 12 -18 12 -13
0 -20 -5 -17 -12z"/>
<path d="M5130 2800 c0 -5 5 -10 10 -10 6 0 10 5 10 10 0 6 -4 10 -10 10 -5 0
-10 -4 -10 -10z"/>
<path d="M5130 2624 c0 -17 22 -14 28 4 2 7 -3 12 -12 12 -9 0 -16 -7 -16 -16z"/>
<path d="M5305 2630 c-3 -5 1 -10 10 -10 9 0 13 5 10 10 -3 6 -8 10 -10 10 -2
0 -7 -4 -10 -10z"/>
<path d="M5127 2464 c-9 -10 2 -24 19 -24 8 0 14 7 14 15 0 15 -21 21 -33 9z"/>
<path d="M5306 2461 c-4 -5 -2 -12 3 -15 5 -4 12 -2 15 3 4 5 2 12 -3 15 -5 4
-12 2 -15 -3z"/>
<path d="M5300 2280 c0 -5 7 -10 15 -10 8 0 15 5 15 10 0 6 -7 10 -15 10 -8 0
-15 -4 -15 -10z"/>
<path d="M5480 2279 c0 -5 5 -7 10 -4 6 3 10 8 10 11 0 2 -4 4 -10 4 -5 0 -10
-5 -10 -11z"/>
<path d="M4782 2131 c-20 -12 -10 -46 14 -49 25 -4 40 24 23 44 -13 16 -19 17
-37 5z"/>
<path d="M4950 2111 c0 -26 17 -36 35 -21 18 15 8 40 -16 40 -12 0 -19 -7 -19
-19z"/>
<path d="M5300 2110 c0 -5 7 -10 15 -10 8 0 15 5 15 10 0 6 -7 10 -15 10 -8 0
-15 -4 -15 -10z"/>
<path d="M5480 2110 c0 -5 5 -10 11 -10 5 0 7 5 4 10 -3 6 -8 10 -11 10 -2 0
-4 -4 -4 -10z"/>
<path d="M4774 1945 c-8 -19 3 -35 26 -35 19 0 30 17 23 38 -6 17 -42 15 -49
-3z"/>
<path d="M4953 1944 c-3 -8 -1 -20 5 -26 15 -15 43 8 35 28 -7 19 -32 18 -40
-2z"/>
<path d="M5127 1944 c-9 -10 2 -24 19 -24 8 0 14 7 14 15 0 15 -21 21 -33 9z"/>
<path d="M5305 1941 c-6 -11 9 -23 19 -14 9 9 7 23 -3 23 -6 0 -12 -4 -16 -9z"/>
<path d="M4596 1773 c-7 -16 16 -43 36 -43 15 0 27 37 16 48 -17 17 -45 14
-52 -5z"/>
<path d="M4774 1776 c-8 -21 3 -36 27 -36 15 0 20 6 17 22 -4 27 -35 37 -44
14z"/>
<path d="M4952 1763 c2 -10 10 -18 18 -18 8 0 16 8 18 18 2 12 -3 17 -18 17
-15 0 -20 -5 -18 -17z"/>
<path d="M5127 1774 c-9 -10 2 -24 19 -24 8 0 14 7 14 15 0 15 -21 21 -33 9z"/>
<path d="M5306 1771 c-4 -5 -2 -12 3 -15 5 -4 12 -2 15 3 4 5 2 12 -3 15 -5 4
-12 2 -15 -3z"/>
<path d="M4430 1605 c-11 -13 -11 -19 3 -32 21 -21 49 -9 45 19 -4 28 -30 35
-48 13z"/>
<path d="M4607 1613 c-22 -21 2 -56 31 -46 17 7 15 40 -4 47 -19 7 -19 7 -27
-1z"/>
<path d="M4775 1600 c-9 -15 4 -30 26 -30 12 0 19 7 19 20 0 21 -33 29 -45 10z"/>
<path d="M4954 1599 c-10 -17 13 -36 27 -22 12 12 4 33 -11 33 -5 0 -12 -5
-16 -11z"/>
<path d="M5136 1603 c-11 -11 -6 -23 9 -23 8 0 15 4 15 9 0 13 -16 22 -24 14z"/>
<path d="M3745 1431 c-8 -15 3 -31 21 -31 9 0 14 7 12 17 -4 20 -24 28 -33 14z"/>
<path d="M3915 1430 c-4 -7 -3 -16 3 -22 14 -14 45 -2 40 15 -6 16 -34 21 -43
7z"/>
<path d="M4084 1429 c-3 -6 0 -17 7 -25 18 -17 44 -2 36 20 -7 18 -33 21 -43
5z"/>
<path d="M4262 1418 c2 -13 10 -23 18 -23 8 0 16 10 18 23 3 17 -2 22 -18 22
-16 0 -21 -5 -18 -22z"/>
<path d="M4430 1421 c0 -27 19 -36 37 -18 18 18 9 37 -18 37 -12 0 -19 -7 -19
-19z"/>
<path d="M4605 1430 c-4 -7 -3 -16 3 -22 14 -14 45 -2 40 15 -6 16 -34 21 -43
7z"/>
<path d="M4787 1434 c-14 -14 -7 -35 11 -32 9 2 17 10 17 17 0 16 -18 25 -28
15z"/>
<path d="M3405 1420 c-3 -5 1 -10 9 -10 9 0 16 5 16 10 0 6 -4 10 -9 10 -6 0
-13 -4 -16 -10z"/>
<path d="M3572 1418 c6 -18 28 -21 28 -4 0 9 -7 16 -16 16 -9 0 -14 -5 -12
-12z"/>
<path d="M4960 1415 c0 -8 5 -15 10 -15 6 0 10 7 10 15 0 8 -4 15 -10 15 -5 0
-10 -7 -10 -15z"/>
<path d="M5130 1420 c0 -5 5 -10 10 -10 6 0 10 5 10 10 0 6 -4 10 -10 10 -5 0
-10 -4 -10 -10z"/>
<path d="M3580 1245 c0 -8 5 -15 10 -15 6 0 10 7 10 15 0 8 -4 15 -10 15 -5 0
-10 -7 -10 -15z"/>
<path d="M3750 1245 c0 -9 5 -15 11 -13 6 2 11 8 11 13 0 5 -5 11 -11 13 -6 2
-11 -4 -11 -13z"/>
<path d="M3920 1245 c0 -8 7 -15 15 -15 8 0 15 7 15 15 0 8 -7 15 -15 15 -8 0
-15 -7 -15 -15z"/>
<path d="M4090 1245 c0 -10 7 -15 18 -13 21 4 19 22 -2 26 -10 2 -16 -3 -16
-13z"/>
<path d="M4260 1245 c0 -8 9 -15 20 -15 11 0 20 7 20 15 0 8 -9 15 -20 15 -11
0 -20 -7 -20 -15z"/>
<path d="M4437 1253 c-13 -12 -7 -23 13 -23 11 0 20 7 20 15 0 15 -21 21 -33
8z"/>
<path d="M4610 1245 c0 -8 7 -15 15 -15 8 0 15 7 15 15 0 8 -7 15 -15 15 -8 0
-15 -7 -15 -15z"/>
<path d="M4787 1254 c-8 -8 1 -24 14 -24 5 0 9 7 9 15 0 15 -12 20 -23 9z"/>
<path d="M4960 1245 c0 -8 5 -15 10 -15 6 0 10 7 10 15 0 8 -4 15 -10 15 -5 0
-10 -7 -10 -15z"/>
<path d="M4096 1083 c-11 -11 -6 -23 9 -23 8 0 15 4 15 9 0 13 -16 22 -24 14z"/>
<path d="M4270 1075 c0 -8 5 -15 10 -15 6 0 10 7 10 15 0 8 -4 15 -10 15 -5 0
-10 -7 -10 -15z"/>
<path d="M4446 1081 c-4 -7 -5 -15 -2 -18 9 -9 19 4 14 18 -4 11 -6 11 -12 0z"/>
<path d="M3580 1069 c0 -5 5 -7 10 -4 6 3 10 8 10 11 0 2 -4 4 -10 4 -5 0 -10
-5 -10 -11z"/>
<path d="M3750 1070 c0 -5 5 -10 10 -10 6 0 10 5 10 10 0 6 -4 10 -10 10 -5 0
-10 -4 -10 -10z"/>
<path d="M3920 1070 c0 -5 4 -10 9 -10 6 0 13 5 16 10 3 6 -1 10 -9 10 -9 0
-16 -4 -16 -10z"/>
<path d="M4610 1070 c0 -5 7 -10 15 -10 8 0 15 5 15 10 0 6 -7 10 -15 10 -8 0
-15 -4 -15 -10z"/>
<path d="M4790 1069 c0 -5 5 -7 10 -4 6 3 10 8 10 11 0 2 -4 4 -10 4 -5 0 -10
-5 -10 -11z"/>
<path d="M4270 900 c0 -5 5 -10 10 -10 6 0 10 5 10 10 0 6 -4 10 -10 10 -5 0
-10 -4 -10 -10z"/>
<path d="M4440 900 c0 -5 5 -10 10 -10 6 0 10 5 10 10 0 6 -4 10 -10 10 -5 0
-10 -4 -10 -10z"/>
</g>
</svg>
